<svg xmlns="http://www.w3.org/2000/svg" width="17" height="17" viewBox="0 0 17 17">
  <!-- A controller: a pill with the cross on the left and two buttons on the
       right, cut out of it: the holes are the ground showing through rather
       than a second colour: the set has one colour, and the ground shows
       where it is. Tall enough to weigh what the squares beside it weigh. -->
  <path fill="#ffffff" fill-rule="evenodd"
        d="M4.6 4.0 H12.4 A4.5 4.5 0 0 1 12.4 13.0 H4.6 A4.5 4.5 0 0 1 4.6 4.0 Z
           M4.2 5.7 H6.0 V7.5 H7.8 V9.3 H6.0 V11.1 H4.2 V9.3 H2.4 V7.5 H4.2 Z
           M12.9 7.0 A1.4 1.4 0 1 0 10.1 7.0 A1.4 1.4 0 1 0 12.9 7.0 Z
           M14.7 10.1 A1.4 1.4 0 1 0 11.9 10.1 A1.4 1.4 0 1 0 14.7 10.1 Z"/>
</svg>
